<svg xmlns="http://www.w3.org/2000/svg" xmlns:xlink="http://www.w3.org/1999/xlink" width="500" zoomAndPan="magnify" viewBox="0 0 375 374.999991" height="500" preserveAspectRatio="xMidYMid meet" version="1.0"><defs><clipPath id="27e2565043"><path d="M 147 282 L 228 282 L 228 349.875 L 147 349.875 Z M 147 282 " clip-rule="nonzero"/></clipPath><clipPath id="f20e6e9324"><path d="M 23.8125 145 L 91 145 L 91 227 L 23.8125 227 Z M 23.8125 145 " clip-rule="nonzero"/></clipPath><clipPath id="76fccd4058"><path d="M 147 22.125 L 228 22.125 L 228 89 L 147 89 Z M 147 22.125 " clip-rule="nonzero"/></clipPath><clipPath id="091d39dace"><path d="M 284 145 L 351.5625 145 L 351.5625 227 L 284 227 Z M 284 145 " clip-rule="nonzero"/></clipPath></defs><rect x="-37.5" width="450" fill="#ffffff" y="-37.499999" height="449.999989" fill-opacity="1"/><rect x="-37.5" width="450" fill="#000000" y="-37.499999" height="449.999989" fill-opacity="1"/><path fill="#ffffff" d="M 141.503906 74.796875 L 139.972656 78.601562 C 135.527344 89.613281 132.761719 101.277344 131.753906 113.265625 L 131.417969 117.285156 L 135.445312 117.613281 C 143.304688 118.242188 150.960938 119.53125 158.191406 121.429688 L 161.140625 122.207031 L 162.6875 119.570312 C 166.472656 113.09375 170.972656 106.773438 176.070312 100.785156 L 178.683594 97.710938 L 175.597656 95.109375 C 166.402344 87.335938 156.199219 81.042969 145.277344 76.410156 Z M 167.324219 98.730469 C 163.640625 103.316406 160.28125 108.070312 157.296875 112.910156 C 151.769531 111.59375 146.027344 110.605469 140.175781 109.972656 C 141.179688 101.578125 143.117188 93.371094 145.949219 85.511719 C 153.5 89.066406 160.671875 93.503906 167.324219 98.730469 Z M 167.324219 98.730469 " fill-opacity="1" fill-rule="nonzero"/><g clip-path="url(#27e2565043)"><path fill="#ffffff" d="M 187.5 349.484375 L 189.703125 348.042969 C 196.542969 343.582031 202.984375 338.355469 208.847656 332.492188 C 214.945312 326.402344 220.453125 319.496094 225.214844 311.976562 L 227.730469 308.027344 L 223.441406 306.136719 C 211.300781 300.800781 200.09375 293.722656 190.132812 285.101562 L 187.5 282.820312 L 184.867188 285.101562 C 174.878906 293.746094 163.675781 300.824219 151.5625 306.144531 L 147.28125 308.03125 L 149.78125 311.976562 C 154.550781 319.503906 160.050781 326.40625 166.132812 332.492188 C 171.976562 338.332031 178.425781 343.5625 185.304688 348.039062 Z M 159.125 311.519531 C 169.277344 306.636719 178.804688 300.558594 187.496094 293.410156 C 196.171875 300.546875 205.699219 306.625 215.871094 311.515625 C 212.050781 317.042969 207.78125 322.175781 203.15625 326.800781 C 198.316406 331.632812 193.054688 336.011719 187.5 339.832031 C 181.898438 335.992188 176.632812 331.617188 171.820312 326.800781 C 167.199219 322.179688 162.941406 317.054688 159.125 311.519531 Z M 159.125 311.519531 " fill-opacity="1" fill-rule="nonzero"/></g><path fill="#ffffff" d="M 233.464844 296.84375 L 234.996094 293.039062 C 239.449219 282.011719 242.210938 270.347656 243.214844 258.375 L 243.550781 254.351562 L 239.527344 254.03125 C 235.449219 253.699219 232.132812 253.316406 228.90625 252.792969 C 227.097656 252.488281 225.359375 252.164062 223.660156 251.816406 C 221.941406 251.464844 220.359375 251.109375 218.832031 250.726562 L 213.839844 249.433594 L 212.296875 252.070312 C 208.53125 258.519531 204.027344 264.835938 198.917969 270.84375 L 196.300781 273.921875 L 199.386719 276.519531 C 208.554688 284.273438 218.75 290.5625 229.6875 295.222656 Z M 207.667969 272.894531 C 211.355469 268.304688 214.714844 263.554688 217.6875 258.730469 C 219.074219 259.0625 220.511719 259.382812 222.132812 259.714844 C 223.84375 260.066406 225.671875 260.40625 227.8125 260.769531 C 230 261.125 232.257812 261.414062 234.796875 261.675781 C 233.792969 270.039062 231.859375 278.238281 229.027344 286.113281 C 221.457031 282.542969 214.289062 278.105469 207.667969 272.894531 Z M 207.667969 272.894531 " fill-opacity="1" fill-rule="nonzero"/><g clip-path="url(#f20e6e9324)"><path fill="#ffffff" d="M 65.34375 226.09375 L 67.210938 221.789062 C 70.332031 214.640625 73.9375 207.96875 77.902344 201.988281 L 80.140625 198.714844 C 80.371094 198.382812 80.621094 198.046875 80.890625 197.695312 L 82.695312 195.226562 C 83.390625 194.300781 84.050781 193.460938 84.734375 192.609375 C 85.257812 191.929688 85.929688 191.109375 87.019531 189.804688 L 90.476562 185.835938 L 88.183594 183.183594 C 86.136719 180.820312 84.191406 178.402344 82.234375 175.785156 C 80.921875 174.0625 79.554688 172.125 77.9375 169.703125 C 73.949219 163.679688 70.339844 157.003906 67.210938 149.859375 L 65.339844 145.566406 L 61.382812 148.066406 C 53.820312 152.839844 46.902344 158.351562 40.804688 164.449219 C 34.953125 170.304688 29.714844 176.757812 25.253906 183.625 L 23.8125 185.828125 L 25.253906 188.023438 C 29.738281 194.914062 34.96875 201.367188 40.808594 207.203125 C 46.902344 213.300781 53.828125 218.808594 61.375 223.582031 Z M 82.359375 186.445312 Z M 33.464844 185.828125 C 37.296875 180.230469 41.679688 174.960938 46.5 170.140625 C 51.113281 165.527344 56.257812 161.257812 61.824219 157.417969 C 64.648438 163.355469 67.8125 168.976562 71.246094 174.160156 C 72.984375 176.765625 74.453125 178.847656 75.984375 180.859375 C 77.226562 182.519531 78.53125 184.175781 79.878906 185.8125 C 79.304688 186.503906 78.8125 187.121094 78.429688 187.621094 C 77.621094 188.617188 76.78125 189.699219 75.851562 190.941406 L 74.457031 192.863281 C 74.097656 193.339844 73.738281 193.820312 73.328125 194.421875 L 71.222656 197.5 C 67.789062 202.683594 64.628906 208.296875 61.816406 214.226562 C 56.25 210.386719 51.105469 206.117188 46.5 201.503906 C 41.683594 196.699219 37.308594 191.429688 33.464844 185.828125 Z M 33.464844 185.828125 " fill-opacity="1" fill-rule="nonzero"/></g><path fill="#ffffff" d="M 141.503906 296.847656 L 145.285156 295.242188 C 156.199219 290.589844 166.398438 284.292969 175.59375 276.527344 L 178.683594 273.925781 L 176.070312 270.851562 C 170.964844 264.84375 166.460938 258.523438 162.6875 252.0625 L 161.144531 249.425781 L 158.191406 250.203125 C 150.945312 252.101562 143.292969 253.386719 135.4375 254.023438 L 131.417969 254.347656 L 131.753906 258.371094 C 132.765625 270.375 135.53125 282.042969 139.972656 293.054688 Z M 157.296875 258.71875 C 160.269531 263.550781 163.636719 268.304688 167.324219 272.894531 C 160.671875 278.132812 153.496094 282.574219 145.949219 286.125 C 143.117188 278.25 141.179688 270.039062 140.175781 261.652344 C 146.035156 261.019531 151.773438 260.03125 157.296875 258.71875 Z M 157.296875 258.71875 " fill-opacity="1" fill-rule="nonzero"/><path fill="#ffffff" d="M 71.730469 301.546875 L 74.304688 302.078125 C 82.179688 303.746094 90.355469 304.59375 98.617188 304.59375 C 107.480469 304.59375 116.34375 303.617188 124.957031 301.699219 L 129.539062 300.675781 L 127.835938 296.308594 C 123.027344 283.972656 120.097656 271.042969 119.140625 257.871094 L 118.886719 254.402344 L 115.417969 254.144531 C 102.21875 253.183594 89.277344 250.261719 76.957031 245.464844 L 72.59375 243.765625 L 71.574219 248.328125 C 69.636719 256.894531 68.65625 265.675781 68.65625 274.433594 C 68.65625 282.699219 69.511719 290.953125 71.199219 298.964844 Z M 78.503906 254.617188 C 89.140625 258.347656 100.1875 260.789062 111.40625 261.882812 C 112.496094 273.085938 114.9375 284.125 118.671875 294.757812 C 105.378906 297.15625 91.605469 297.144531 78.558594 294.722656 C 77.324219 288.0625 76.703125 281.246094 76.703125 274.441406 C 76.703125 267.820312 77.308594 261.171875 78.503906 254.617188 Z M 78.503906 254.617188 " fill-opacity="1" fill-rule="nonzero"/><path fill="#ffffff" d="M 76.472656 231.808594 L 80.273438 233.339844 C 91.28125 237.773438 102.945312 240.535156 114.929688 241.546875 L 118.957031 241.882812 L 119.277344 237.863281 C 119.914062 230.011719 121.191406 222.359375 123.09375 215.113281 L 123.871094 212.160156 L 121.234375 210.617188 C 114.785156 206.855469 108.46875 202.355469 102.339844 197.144531 L 99.246094 194.835938 L 96.011719 198.613281 C 95.453125 199.273438 94.976562 199.859375 94.386719 200.617188 C 94.050781 201.03125 93.710938 201.460938 93.40625 201.886719 L 92.339844 203.253906 C 91.777344 204.007812 91.234375 204.738281 90.4375 205.871094 L 88.160156 209.132812 L 88.175781 209.144531 C 84.269531 215.046875 80.875 221.40625 78.074219 228.039062 Z M 94.90625 213.539062 L 99.222656 207.492188 C 99.46875 207.203125 99.703125 206.90625 99.9375 206.578125 C 100.085938 206.371094 100.242188 206.167969 100.394531 205.976562 C 104.988281 209.675781 109.742188 213.035156 114.574219 216.007812 C 113.261719 221.527344 112.277344 227.265625 111.636719 233.121094 C 103.242188 232.113281 95.035156 230.179688 87.167969 227.359375 C 89.4375 222.523438 92.035156 217.875 94.90625 213.539062 Z M 94.90625 213.539062 " fill-opacity="1" fill-rule="nonzero"/><path fill="#ffffff" d="M 123.871094 159.453125 L 123.09375 156.5 C 121.191406 149.265625 119.914062 141.625 119.277344 133.773438 L 118.957031 129.746094 L 114.929688 130.085938 C 102.90625 131.101562 91.242188 133.867188 80.269531 138.300781 L 76.484375 139.835938 L 78.070312 143.601562 C 80.886719 150.25 84.339844 156.6875 88.40625 162.832031 C 89.621094 164.644531 90.933594 166.507812 92.328125 168.371094 C 92.539062 168.652344 92.761719 168.925781 93.03125 169.253906 L 93.339844 169.632812 C 94.433594 171.050781 95.601562 172.488281 96.804688 173.90625 L 99.410156 176.992188 L 102.484375 174.371094 C 108.472656 169.273438 114.777344 164.769531 121.238281 160.984375 Z M 100.425781 165.640625 C 100.179688 165.335938 99.945312 165.027344 99.710938 164.722656 L 98.769531 163.554688 C 97.46875 161.808594 96.230469 160.066406 95.050781 158.292969 C 92.101562 153.847656 89.460938 149.144531 87.183594 144.28125 C 95.027344 141.460938 103.234375 139.523438 111.640625 138.515625 C 112.28125 144.371094 113.265625 150.105469 114.578125 155.609375 C 109.738281 158.597656 104.992188 161.960938 100.425781 165.640625 Z M 100.425781 165.640625 " fill-opacity="1" fill-rule="nonzero"/><path fill="#ffffff" d="M 68.65625 97.21875 C 68.65625 105.972656 69.636719 114.753906 71.570312 123.316406 L 72.601562 127.886719 L 76.957031 126.179688 C 89.300781 121.355469 102.238281 118.421875 115.417969 117.464844 L 118.886719 117.210938 L 119.140625 113.742188 C 120.09375 100.589844 123.019531 87.664062 127.835938 75.324219 L 129.535156 70.964844 L 124.96875 69.933594 C 108.292969 66.191406 90.777344 66.058594 74.316406 69.535156 L 71.75 70.078125 L 71.214844 72.644531 C 69.519531 80.65625 68.65625 88.925781 68.65625 97.21875 Z M 78.574219 76.902344 C 91.632812 74.480469 105.414062 74.480469 118.679688 76.878906 C 114.9375 87.515625 112.492188 98.550781 111.40625 109.734375 C 100.195312 110.824219 89.148438 113.273438 78.5 117.023438 C 77.308594 110.472656 76.707031 103.824219 76.707031 97.21875 C 76.703125 90.386719 77.332031 83.5625 78.574219 76.902344 Z M 78.574219 76.902344 " fill-opacity="1" fill-rule="nonzero"/><path fill="#ffffff" d="M 237.457031 207.796875 L 237.617188 207.226562 C 237.722656 206.871094 237.859375 206.539062 238.039062 206.179688 C 238.148438 205.96875 238.253906 205.757812 238.386719 205.550781 L 238.785156 205.050781 C 238.933594 204.867188 239.097656 204.695312 239.34375 204.457031 L 239.699219 204.132812 C 239.898438 203.972656 240.148438 203.828125 240.421875 203.667969 L 240.773438 203.421875 C 248.691406 199.464844 256.183594 194.585938 263.046875 188.925781 L 266.804688 185.820312 L 263.046875 182.71875 C 256.222656 177.078125 248.765625 172.214844 241.046875 168.355469 L 240.566406 168.0625 C 240.242188 167.878906 239.933594 167.683594 239.664062 167.464844 L 239.320312 167.148438 C 239.101562 166.941406 238.902344 166.726562 238.71875 166.492188 C 238.644531 166.402344 238.570312 166.316406 238.496094 166.238281 L 238.417969 166.125 C 238.230469 165.839844 238.054688 165.527344 237.898438 165.183594 C 237.800781 164.988281 237.742188 164.785156 237.683594 164.605469 C 237.585938 164.3125 237.503906 164.066406 237.449219 163.796875 C 237.402344 163.59375 237.386719 163.390625 237.371094 163.179688 C 237.347656 162.984375 237.34375 162.785156 237.347656 162.457031 C 237.347656 162.273438 237.339844 162.089844 237.375 161.835938 L 237.480469 161.347656 C 237.539062 161.125 237.578125 160.898438 237.597656 160.664062 C 238.050781 159.273438 238.476562 157.878906 239.027344 156.097656 C 240.765625 150.027344 242.027344 143.757812 242.789062 137.457031 C 242.875 136.773438 242.929688 136.117188 243.03125 135.105469 L 243.527344 129.738281 L 238.679688 130.203125 C 229.839844 131.054688 221.097656 132.898438 212.695312 135.703125 C 209.761719 136.675781 206.515625 135.335938 205.132812 132.574219 C 201.160156 124.65625 196.269531 117.148438 190.597656 110.265625 L 187.488281 106.496094 L 184.386719 110.261719 C 178.738281 117.105469 173.855469 124.613281 169.859375 132.574219 C 168.476562 135.339844 165.226562 136.691406 162.296875 135.703125 C 153.875 132.902344 145.109375 131.046875 136.246094 130.203125 L 131.382812 129.730469 L 131.855469 134.589844 C 132.707031 143.449219 134.558594 152.203125 137.355469 160.601562 C 138.332031 163.53125 136.988281 166.785156 134.230469 168.171875 C 126.277344 172.164062 118.777344 177.0625 111.917969 182.730469 L 108.167969 185.835938 L 111.925781 188.933594 C 118.789062 194.589844 126.285156 199.472656 134.21875 203.4375 C 136.984375 204.824219 138.332031 208.078125 137.355469 211.007812 C 134.5625 219.433594 132.707031 228.191406 131.855469 237.054688 L 131.382812 241.917969 L 136.246094 241.449219 C 145.113281 240.59375 153.875 238.746094 162.304688 235.941406 C 165.148438 234.984375 168.492188 236.34375 169.859375 239.078125 C 173.851562 247.035156 178.738281 254.539062 184.386719 261.382812 L 187.484375 265.148438 L 190.597656 261.382812 C 196.269531 254.496094 201.164062 246.992188 205.132812 239.070312 C 206.523438 236.296875 209.796875 234.957031 212.722656 235.957031 C 215.699219 236.960938 218.675781 237.820312 221.816406 238.589844 C 224.65625 239.292969 227.703125 239.914062 231.152344 240.492188 C 233.589844 240.890625 236.125 241.210938 238.6875 241.457031 L 243.519531 241.921875 L 243.007812 236.320312 C 242.9375 235.585938 242.875 234.859375 242.78125 234.183594 C 242.023438 227.878906 240.761719 221.617188 238.90625 215.164062 C 238.480469 213.769531 238.046875 212.371094 237.601562 210.917969 L 237.488281 210.304688 L 237.371094 209.8125 C 237.34375 209.558594 237.34375 209.308594 237.34375 209.058594 C 237.34375 208.882812 237.34375 208.710938 237.363281 208.480469 C 237.386719 208.242188 237.40625 208.015625 237.457031 207.796875 Z M 235.246094 210.816406 Z M 237.1875 196.21875 C 236.894531 196.367188 236.609375 196.542969 236.277344 196.773438 C 235.757812 197.082031 235.199219 197.433594 234.730469 197.8125 C 234.359375 198.097656 234.027344 198.410156 233.671875 198.761719 C 233.277344 199.136719 232.902344 199.542969 232.640625 199.859375 C 232.390625 200.109375 232.164062 200.363281 231.96875 200.632812 C 231.792969 200.875 231.652344 201.125 231.667969 201.125 C 231.667969 201.125 231.675781 201.125 231.679688 201.121094 C 231.367188 201.597656 231.113281 202.078125 230.859375 202.570312 C 230.476562 203.328125 230.167969 204.089844 229.851562 205.144531 C 229.75 205.484375 229.644531 205.824219 229.574219 206.179688 C 229.457031 206.789062 229.390625 207.371094 229.355469 207.796875 C 229.320312 208.214844 229.300781 208.632812 229.300781 209.058594 C 229.300781 209.582031 229.3125 210.144531 229.382812 210.710938 C 229.425781 211.085938 229.503906 211.460938 229.59375 211.835938 L 229.679688 212.292969 C 229.738281 212.632812 229.8125 213.039062 229.953125 213.476562 C 230.394531 214.824219 230.816406 216.171875 231.316406 217.800781 C 232.714844 222.699219 233.785156 227.75 234.507812 232.859375 C 233.820312 232.761719 233.140625 232.660156 232.476562 232.550781 C 229.253906 232.007812 226.40625 231.421875 223.757812 230.769531 C 220.84375 230.058594 218.082031 229.257812 215.316406 228.328125 C 208.601562 226.042969 201.136719 229.105469 197.949219 235.464844 C 194.996094 241.351562 191.492188 247.007812 187.503906 252.3125 C 183.535156 247.023438 180.03125 241.367188 177.066406 235.46875 C 174.632812 230.59375 169.730469 227.570312 164.285156 227.570312 C 162.753906 227.570312 161.234375 227.8125 159.769531 228.300781 C 153.519531 230.386719 147.039062 231.90625 140.476562 232.839844 C 141.410156 226.265625 142.933594 219.789062 145.011719 213.542969 C 147.242188 206.84375 144.152344 199.40625 137.832031 196.238281 C 131.9375 193.289062 126.285156 189.792969 121 185.820312 C 126.296875 181.835938 131.960938 178.324219 137.859375 175.359375 C 144.167969 172.1875 147.242188 164.75 145.007812 158.058594 C 142.929688 151.824219 141.40625 145.363281 140.476562 138.800781 C 147.042969 139.734375 153.519531 141.253906 159.769531 143.332031 C 166.453125 145.550781 173.90625 142.488281 177.070312 136.167969 C 180.039062 130.257812 183.539062 124.597656 187.507812 119.320312 C 191.496094 124.632812 195.003906 130.289062 197.953125 136.171875 C 201.121094 142.496094 208.558594 145.570312 215.261719 143.328125 C 221.507812 141.246094 227.972656 139.722656 234.519531 138.792969 C 233.800781 143.875 232.714844 148.957031 231.238281 154.113281 C 230.820312 155.460938 230.398438 156.8125 229.96875 158.164062 C 229.832031 158.574219 229.746094 158.992188 229.605469 159.792969 C 229.515625 160.179688 229.4375 160.566406 229.402344 160.902344 C 229.328125 161.476562 229.320312 162 229.320312 162.488281 C 229.3125 162.964844 229.332031 163.421875 229.378906 163.960938 C 229.429688 164.460938 229.484375 164.953125 229.574219 165.371094 C 229.699219 166.003906 229.882812 166.605469 230.074219 167.175781 C 230.230469 167.636719 230.394531 168.089844 230.597656 168.53125 C 230.914062 169.238281 231.289062 169.910156 231.605469 170.363281 L 231.984375 170.988281 C 232.179688 171.257812 232.398438 171.5 232.460938 171.535156 C 232.871094 172.039062 233.324219 172.535156 233.902344 173.082031 C 234.136719 173.300781 234.371094 173.515625 234.628906 173.726562 C 235.253906 174.226562 235.945312 174.691406 236.539062 175.007812 L 237.1875 175.394531 C 243.0625 178.332031 248.710938 181.832031 254.003906 185.816406 C 248.699219 189.789062 243.0625 193.285156 237.1875 196.21875 Z M 233.835938 201.960938 Z M 233.835938 201.960938 " fill-opacity="1" fill-rule="nonzero"/><path fill="#ffffff" d="M 233.484375 74.800781 L 229.707031 76.398438 C 218.785156 81.03125 208.585938 87.328125 199.394531 95.101562 L 196.304688 97.707031 L 198.921875 100.785156 C 204.015625 106.773438 208.523438 113.09375 212.308594 119.5625 L 213.855469 122.203125 L 216.808594 121.425781 C 224.035156 119.523438 231.679688 118.242188 239.53125 117.609375 L 243.554688 117.28125 L 243.21875 113.257812 C 242.214844 101.285156 239.457031 89.625 235.019531 78.597656 Z M 217.699219 112.902344 C 214.71875 108.070312 211.347656 103.316406 207.667969 98.726562 C 214.300781 93.503906 221.472656 89.070312 229.039062 85.511719 C 231.863281 93.386719 233.796875 101.59375 234.796875 109.96875 C 228.949219 110.605469 223.214844 111.59375 217.699219 112.902344 Z M 217.699219 112.902344 " fill-opacity="1" fill-rule="nonzero"/><g clip-path="url(#76fccd4058)"><path fill="#ffffff" d="M 187.496094 22.125 L 185.300781 23.5625 C 178.390625 28.074219 171.949219 33.320312 166.140625 39.152344 C 160.054688 45.242188 154.550781 52.140625 149.785156 59.667969 L 147.273438 63.621094 L 151.5625 65.507812 C 163.671875 70.816406 174.871094 77.890625 184.859375 86.53125 L 187.492188 88.808594 L 190.125 86.53125 C 200.105469 77.894531 211.3125 70.816406 223.441406 65.503906 L 227.726562 63.625 L 225.226562 59.667969 C 220.449219 52.117188 214.949219 45.214844 208.871094 39.144531 C 203.054688 33.324219 196.605469 28.085938 189.699219 23.566406 Z M 215.882812 60.113281 C 205.710938 64.988281 196.183594 71.066406 187.496094 78.21875 C 178.796875 71.066406 169.28125 64.988281 159.128906 60.125 C 162.96875 54.574219 167.234375 49.441406 171.84375 44.839844 C 176.632812 40.027344 181.898438 35.636719 187.5 31.777344 C 193.117188 35.636719 198.382812 40.023438 203.1875 44.824219 C 207.789062 49.425781 212.054688 54.558594 215.882812 60.113281 Z M 215.882812 60.113281 " fill-opacity="1" fill-rule="nonzero"/></g><path fill="#ffffff" d="M 276.367188 304.589844 C 284.601562 304.589844 292.777344 303.75 300.675781 302.097656 L 303.257812 301.566406 L 303.792969 298.984375 C 305.460938 291.015625 306.3125 282.753906 306.3125 274.4375 C 306.3125 265.710938 305.335938 256.929688 303.414062 248.339844 L 302.382812 243.769531 L 298.023438 245.476562 C 295.589844 246.429688 293.40625 247.21875 291.363281 247.890625 L 290.632812 248.128906 C 289.765625 248.40625 288.894531 248.683594 288.050781 248.933594 L 287.542969 249.078125 C 279.160156 251.574219 270.40625 253.230469 261.105469 254.046875 L 256.078125 254.390625 L 255.824219 257.886719 C 254.871094 271.054688 251.945312 283.976562 247.132812 296.308594 L 245.429688 300.675781 L 250.007812 301.699219 C 258.609375 303.617188 267.476562 304.589844 276.367188 304.589844 Z M 263.550781 262.039062 L 265.910156 261.878906 L 265.910156 261.65625 C 274.066406 260.722656 282.070312 259.097656 289.714844 256.828125 L 290.34375 256.648438 C 291.253906 256.375 292.183594 256.082031 293.09375 255.785156 L 296.496094 254.691406 C 297.675781 261.222656 298.273438 267.855469 298.273438 274.4375 C 298.273438 281.289062 297.652344 288.113281 296.4375 294.730469 C 283.351562 297.132812 269.5625 297.132812 256.304688 294.753906 C 260.019531 284.160156 262.453125 273.179688 263.550781 262.039062 Z M 263.550781 262.039062 " fill-opacity="1" fill-rule="nonzero"/><path fill="#ffffff" d="M 272.515625 197.246094 C 266.523438 202.351562 260.207031 206.847656 253.75 210.621094 L 251.117188 212.160156 L 251.886719 215.109375 C 253.363281 220.785156 254.476562 226.636719 255.21875 232.71875 C 255.414062 234.3125 255.578125 235.933594 255.699219 237.519531 L 255.996094 241.847656 L 260.445312 241.542969 C 268.445312 240.84375 276.402344 239.335938 284.074219 237.054688 C 285.210938 236.726562 286.296875 236.378906 287.367188 236.03125 C 289.839844 235.21875 292.316406 234.3125 294.726562 233.339844 L 298.53125 231.808594 L 296.917969 228.039062 C 292.273438 217.113281 285.976562 206.90625 278.199219 197.710938 L 275.597656 194.632812 Z M 287.804688 227.375 C 286.832031 227.730469 285.851562 228.066406 284.875 228.382812 C 283.890625 228.703125 282.875 229.023438 281.738281 229.355469 C 275.765625 231.128906 269.597656 232.402344 263.371094 233.152344 C 263.316406 232.679688 263.265625 232.203125 263.203125 231.730469 L 263.1875 231.589844 C 262.550781 226.359375 261.613281 221.128906 260.402344 216.015625 C 265.234375 213.042969 269.984375 209.683594 274.570312 205.996094 C 279.796875 212.636719 284.238281 219.8125 287.804688 227.375 Z M 287.804688 227.375 " fill-opacity="1" fill-rule="nonzero"/><path fill="#ffffff" d="M 298.527344 139.839844 L 294.722656 138.308594 C 283.730469 133.867188 272.082031 131.097656 260.085938 130.085938 L 256.066406 129.75 L 255.742188 133.765625 C 255.589844 135.558594 255.414062 137.328125 255.214844 139.027344 C 254.5 144.890625 253.386719 150.777344 251.886719 156.519531 L 251.121094 159.472656 L 253.753906 161.007812 C 260.207031 164.78125 266.523438 169.285156 272.519531 174.398438 L 275.597656 177.015625 L 278.199219 173.929688 C 285.980469 164.722656 292.28125 154.523438 296.914062 143.613281 Z M 274.574219 165.644531 C 269.992188 161.957031 265.238281 158.585938 260.402344 155.609375 C 261.628906 150.4375 262.570312 145.1875 263.195312 139.980469 C 263.253906 139.496094 263.308594 139.007812 263.363281 138.511719 C 271.753906 139.515625 279.953125 141.445312 287.800781 144.273438 C 284.238281 151.824219 279.800781 158.996094 274.574219 165.644531 Z M 274.574219 165.644531 " fill-opacity="1" fill-rule="nonzero"/><path fill="#ffffff" d="M 303.417969 123.300781 C 305.335938 114.707031 306.3125 105.929688 306.3125 97.21875 C 306.3125 88.882812 305.457031 80.613281 303.769531 72.628906 L 303.222656 70.0625 L 300.65625 69.527344 C 284.183594 66.0625 266.675781 66.203125 250.011719 69.941406 L 245.449219 70.972656 L 247.148438 75.332031 C 251.953125 87.667969 254.871094 100.59375 255.824219 113.761719 L 256.078125 117.230469 L 259.550781 117.484375 C 272.773438 118.445312 285.722656 121.371094 298.023438 126.179688 L 302.386719 127.878906 Z M 296.476562 117.019531 C 285.855469 113.28125 274.804688 110.84375 263.5625 109.742188 C 262.476562 98.539062 260.035156 87.507812 256.304688 76.878906 C 269.570312 74.480469 283.347656 74.484375 296.414062 76.886719 C 297.644531 83.507812 298.269531 90.335938 298.269531 97.21875 C 298.269531 103.8125 297.664062 110.464844 296.476562 117.019531 Z M 296.476562 117.019531 " fill-opacity="1" fill-rule="nonzero"/><g clip-path="url(#091d39dace)"><path fill="#ffffff" d="M 309.695312 226.058594 L 313.660156 223.546875 C 321.167969 218.777344 328.066406 213.277344 334.160156 207.203125 C 339.957031 201.4375 345.195312 194.980469 349.746094 188.019531 L 351.1875 185.8125 L 349.746094 183.613281 C 345.222656 176.691406 339.980469 170.246094 334.175781 164.464844 C 328.097656 158.386719 321.195312 152.878906 313.652344 148.101562 L 309.695312 145.59375 L 307.820312 149.882812 C 302.5 161.996094 295.414062 173.199219 286.78125 183.1875 L 284.5 185.8125 L 286.78125 188.453125 C 295.417969 198.429688 302.5 209.636719 307.824219 221.761719 Z M 313.191406 157.449219 C 318.738281 161.28125 323.867188 165.546875 328.492188 170.167969 C 333.28125 174.941406 337.664062 180.203125 341.535156 185.820312 C 337.648438 191.464844 333.269531 196.738281 328.480469 201.5 C 323.863281 206.101562 318.734375 210.371094 313.199219 214.199219 C 308.316406 204.035156 302.234375 194.507812 295.078125 185.820312 C 302.230469 177.128906 308.3125 167.597656 313.191406 157.449219 Z M 313.191406 157.449219 " fill-opacity="1" fill-rule="nonzero"/></g></svg>